<?xml version="1.0" encoding="UTF-8" standalone="no"?>
<!DOCTYPE svg PUBLIC "-//W3C//DTD SVG 1.1//EN" "http://www.w3.org/Graphics/SVG/1.1/DTD/svg11.dtd">
<svg width="100%" height="100%" viewBox="0 0 16 16" version="1.1" xmlns="http://www.w3.org/2000/svg" xmlns:xlink="http://www.w3.org/1999/xlink" xml:space="preserve" xmlns:serif="http://www.serif.com/" style="fill-rule:evenodd;clip-rule:evenodd;stroke-miterlimit:2.6131;">
    <g transform="matrix(0.731462,0,0,0.731462,8,7.73923)">
        <g id="connections.svg" transform="matrix(1,0,0,1,-10.937,-10.5805)">
            <clipPath id="_clip1">
                <rect x="0" y="0" width="21.874" height="21.161"/>
            </clipPath>
            <g clip-path="url(#_clip1)">
                <g>
                    <path d="M17.95,0.375C19.909,0.375 21.499,1.964 21.499,3.924C21.499,5.884 19.91,7.473 17.95,7.473C15.99,7.473 14.4,5.884 14.4,3.924C14.4,1.964 15.99,0.375 17.95,0.375ZM17.95,1.008C16.34,1.008 15.034,2.314 15.034,3.924C15.034,5.534 16.34,6.841 17.95,6.841C19.56,6.841 20.866,5.535 20.866,3.924C20.866,2.314 19.56,1.008 17.95,1.008Z" style="fill:rgb(35,31,32);stroke:white;stroke-width:0.75px;"/>
                    <path d="M14.41,16.982L6.985,12.345C7.296,11.818 7.473,11.203 7.473,10.547C7.473,9.891 7.295,9.276 6.985,8.749L14.406,4.113C14.501,5.916 15.941,7.363 17.741,7.467L17.741,13.693C15.962,13.797 14.535,15.21 14.41,16.982Z" style="fill:none;stroke:white;stroke-width:0.75px;"/>
                    <path d="M17.95,13.688C19.909,13.688 21.499,15.277 21.499,17.237C21.499,19.197 19.91,20.786 17.95,20.786C15.99,20.786 14.4,19.197 14.4,17.237C14.4,15.277 15.99,13.688 17.95,13.688ZM17.95,14.32C16.34,14.32 15.034,15.626 15.034,17.236C15.034,18.846 16.34,20.153 17.95,20.153C19.56,20.153 20.866,18.847 20.866,17.236C20.866,15.625 19.56,14.32 17.95,14.32Z" style="fill:rgb(35,31,32);stroke:white;stroke-width:0.75px;"/>
                    <path d="M3.924,6.999C5.884,6.999 7.473,8.588 7.473,10.548C7.473,12.507 5.884,14.097 3.924,14.097C1.964,14.097 0.375,12.508 0.375,10.548C0.375,8.588 1.964,6.999 3.924,6.999ZM3.924,7.632C2.314,7.632 1.008,8.938 1.008,10.548C1.008,12.158 2.314,13.464 3.924,13.464C5.534,13.464 6.84,12.158 6.84,10.548C6.84,8.938 5.534,7.632 3.924,7.632Z" style="fill:rgb(35,31,32);stroke:white;stroke-width:0.75px;"/>
                </g>
            </g>
        </g>
        <g id="connections.svg1" serif:id="connections.svg">
        </g>
    </g>
</svg>
