<?xml version="1.0" encoding="UTF-8" standalone="no"?>
<!DOCTYPE svg PUBLIC "-//W3C//DTD SVG 1.1//EN" "http://www.w3.org/Graphics/SVG/1.1/DTD/svg11.dtd">
<svg width="100%" height="100%" viewBox="0 0 89 28" version="1.1" xmlns="http://www.w3.org/2000/svg" xmlns:xlink="http://www.w3.org/1999/xlink" xml:space="preserve" xmlns:serif="http://www.serif.com/" style="fill-rule:evenodd;clip-rule:evenodd;stroke-linejoin:round;stroke-miterlimit:2;">
    <g transform="matrix(0.459386,0,0,0.587196,-598.485,-103.43)">
        <g transform="matrix(1.54506,0,0,1.20876,1065.34,100.535)">
            <g transform="matrix(30,0,0,30,186.767,93.2806)">
                <path d="M0.507,-0L0.457,-0.166L0.224,-0.166L0.174,-0L0.02,-0L0.25,-0.698L0.438,-0.698L0.665,-0L0.507,-0ZM0.342,-0.56L0.337,-0.56L0.26,-0.295L0.42,-0.295L0.342,-0.56Z" style="fill:rgb(30,78,229);fill-rule:nonzero;"/>
            </g>
            <g transform="matrix(30,0,0,30,207.317,93.2806)">
                <path d="M0.018,-0L0.191,-0.267L0.02,-0.525L0.188,-0.525L0.286,-0.36L0.29,-0.36L0.385,-0.525L0.541,-0.525L0.367,-0.262L0.542,-0L0.374,-0L0.273,-0.171L0.269,-0.171L0.172,-0L0.018,-0Z" style="fill:rgb(30,78,229);fill-rule:nonzero;"/>
            </g>
            <g transform="matrix(30,0,0,30,224.117,93.2806)">
                <path d="M0.143,-0.581C0.113,-0.581 0.091,-0.588 0.078,-0.602C0.064,-0.615 0.057,-0.633 0.057,-0.654L0.057,-0.676C0.057,-0.697 0.064,-0.715 0.078,-0.729C0.091,-0.742 0.113,-0.749 0.143,-0.749C0.173,-0.749 0.195,-0.742 0.209,-0.729C0.222,-0.715 0.229,-0.697 0.229,-0.676L0.229,-0.654C0.229,-0.633 0.222,-0.615 0.209,-0.602C0.195,-0.588 0.173,-0.581 0.143,-0.581ZM0.069,-0.525L0.217,-0.525L0.217,-0L0.069,-0L0.069,-0.525Z" style="fill:rgb(30,78,229);fill-rule:nonzero;"/>
            </g>
            <g transform="matrix(30,0,0,30,232.697,93.2806)">
                <path d="M0.216,-0C0.165,-0 0.128,-0.012 0.105,-0.037C0.081,-0.062 0.069,-0.097 0.069,-0.144L0.069,-0.74L0.217,-0.74L0.217,-0.115L0.283,-0.115L0.283,-0L0.216,-0Z" style="fill:rgb(30,78,229);fill-rule:nonzero;"/>
            </g>
            <g transform="matrix(30,0,0,30,241.787,93.2806)">
                <path d="M0.143,-0.581C0.113,-0.581 0.091,-0.588 0.078,-0.602C0.064,-0.615 0.057,-0.633 0.057,-0.654L0.057,-0.676C0.057,-0.697 0.064,-0.715 0.078,-0.729C0.091,-0.742 0.113,-0.749 0.143,-0.749C0.173,-0.749 0.195,-0.742 0.209,-0.729C0.222,-0.715 0.229,-0.697 0.229,-0.676L0.229,-0.654C0.229,-0.633 0.222,-0.615 0.209,-0.602C0.195,-0.588 0.173,-0.581 0.143,-0.581ZM0.069,-0.525L0.217,-0.525L0.217,-0L0.069,-0L0.069,-0.525Z" style="fill:rgb(30,78,229);fill-rule:nonzero;"/>
            </g>
            <g transform="matrix(30,0,0,30,250.367,93.2806)">
                <path d="M0.288,0.012C0.248,0.012 0.212,0.005 0.181,-0.008C0.15,-0.021 0.123,-0.039 0.102,-0.063C0.08,-0.086 0.064,-0.115 0.053,-0.149C0.042,-0.183 0.036,-0.221 0.036,-0.263C0.036,-0.304 0.041,-0.342 0.052,-0.376C0.063,-0.409 0.079,-0.438 0.1,-0.462C0.121,-0.486 0.146,-0.504 0.177,-0.518C0.208,-0.531 0.243,-0.537 0.282,-0.537C0.325,-0.537 0.363,-0.53 0.394,-0.515C0.425,-0.5 0.45,-0.481 0.469,-0.456C0.489,-0.431 0.503,-0.403 0.513,-0.371C0.522,-0.338 0.526,-0.304 0.526,-0.269L0.526,-0.225L0.189,-0.225L0.189,-0.217C0.189,-0.183 0.198,-0.155 0.217,-0.135C0.236,-0.115 0.265,-0.105 0.305,-0.105C0.336,-0.105 0.361,-0.111 0.38,-0.123C0.399,-0.136 0.417,-0.15 0.434,-0.167L0.508,-0.075C0.485,-0.048 0.454,-0.026 0.417,-0.011C0.379,0.004 0.336,0.012 0.288,0.012ZM0.285,-0.428C0.255,-0.428 0.232,-0.418 0.215,-0.399C0.198,-0.379 0.189,-0.353 0.189,-0.32L0.189,-0.312L0.373,-0.312L0.373,-0.321C0.373,-0.353 0.366,-0.379 0.352,-0.399C0.337,-0.418 0.315,-0.428 0.285,-0.428Z" style="fill:rgb(30,78,229);fill-rule:nonzero;"/>
            </g>
            <g transform="matrix(30,0,0,30,267.227,93.2806)">
                <path d="M0.069,-0L0.069,-0.525L0.217,-0.525L0.217,-0.411L0.222,-0.411C0.225,-0.426 0.229,-0.44 0.236,-0.454C0.243,-0.467 0.252,-0.479 0.263,-0.49C0.274,-0.501 0.287,-0.509 0.302,-0.516C0.317,-0.522 0.335,-0.525 0.356,-0.525L0.382,-0.525L0.382,-0.387L0.345,-0.387C0.302,-0.387 0.27,-0.381 0.249,-0.37C0.228,-0.359 0.217,-0.338 0.217,-0.307L0.217,-0L0.069,-0Z" style="fill:rgb(30,78,229);fill-rule:nonzero;"/>
            </g>
        </g>
        <g transform="matrix(0.692123,0,0,0.541475,1290.24,121.102)">
            <g transform="matrix(0.40079,0,0,0.40079,-37.1894,66.705)">
                <path d="M211.101,87.187L284.163,160.249L211.101,233.311L138.039,160.249L211.101,87.187Z" style="fill:rgb(5,63,255);"/>
            </g>
            <g transform="matrix(0.40079,0,0,0.40079,-37.1894,80.557)">
                <path d="M211.101,87.187L284.163,160.249L211.101,233.311L138.039,160.249L211.101,87.187Z" style="fill:rgb(5,94,255);"/>
            </g>
            <g transform="matrix(0.40079,0,0,0.40079,-37.1894,95.9876)">
                <path d="M211.101,87.187L284.163,160.249L211.101,233.311L138.039,160.249L211.101,87.187Z" style="fill:rgb(5,126,255);"/>
            </g>
        </g>
    </g>
</svg>
